<mxfile host="app.diagrams.net" agent="Mozilla/5.0 (Windows NT 10.0; Win64; x64) AppleWebKit/537.36 (KHTML, like Gecko) Chrome/131.0.0.0 Safari/537.36 Edg/131.0.0.0" version="25.0.3">
  <diagram name="Page-1" id="KsMS1d0f8FCQScb07xmZ">
    <mxGraphModel dx="1042" dy="565" grid="1" gridSize="10" guides="1" tooltips="1" connect="1" arrows="1" fold="1" page="1" pageScale="1" pageWidth="827" pageHeight="1169" math="0" shadow="0">
      <root>
        <mxCell id="0" />
        <mxCell id="1" parent="0" />
        <mxCell id="XOZVNckXf9WFqRaCFHXm-7" style="edgeStyle=orthogonalEdgeStyle;rounded=0;orthogonalLoop=1;jettySize=auto;html=1;entryX=0;entryY=0.5;entryDx=0;entryDy=0;" parent="1" source="XOZVNckXf9WFqRaCFHXm-1" target="XOZVNckXf9WFqRaCFHXm-5" edge="1">
          <mxGeometry relative="1" as="geometry">
            <Array as="points">
              <mxPoint x="100" y="500" />
              <mxPoint x="380" y="500" />
            </Array>
          </mxGeometry>
        </mxCell>
        <mxCell id="XOZVNckXf9WFqRaCFHXm-8" value="Sends Purchase Request" style="edgeLabel;html=1;align=center;verticalAlign=middle;resizable=0;points=[];" parent="XOZVNckXf9WFqRaCFHXm-7" vertex="1" connectable="0">
          <mxGeometry x="0.0753" y="-2" relative="1" as="geometry">
            <mxPoint as="offset" />
          </mxGeometry>
        </mxCell>
        <mxCell id="XOZVNckXf9WFqRaCFHXm-9" style="edgeStyle=orthogonalEdgeStyle;rounded=0;orthogonalLoop=1;jettySize=auto;html=1;entryX=0.5;entryY=1;entryDx=0;entryDy=0;endArrow=none;endFill=0;startArrow=classicThin;startFill=1;" parent="1" source="XOZVNckXf9WFqRaCFHXm-1" target="XOZVNckXf9WFqRaCFHXm-5" edge="1">
          <mxGeometry relative="1" as="geometry">
            <Array as="points">
              <mxPoint x="100" y="580" />
              <mxPoint x="400" y="580" />
              <mxPoint x="400" y="520" />
              <mxPoint x="450" y="520" />
            </Array>
          </mxGeometry>
        </mxCell>
        <mxCell id="XOZVNckXf9WFqRaCFHXm-10" value="Generate Purchase Report" style="edgeLabel;html=1;align=center;verticalAlign=middle;resizable=0;points=[];" parent="XOZVNckXf9WFqRaCFHXm-9" vertex="1" connectable="0">
          <mxGeometry x="-0.1089" y="-2" relative="1" as="geometry">
            <mxPoint as="offset" />
          </mxGeometry>
        </mxCell>
        <mxCell id="XOZVNckXf9WFqRaCFHXm-11" style="edgeStyle=orthogonalEdgeStyle;rounded=0;orthogonalLoop=1;jettySize=auto;html=1;exitX=0.25;exitY=0;exitDx=0;exitDy=0;entryX=0;entryY=0;entryDx=0;entryDy=0;" parent="1" source="XOZVNckXf9WFqRaCFHXm-1" target="XOZVNckXf9WFqRaCFHXm-5" edge="1">
          <mxGeometry relative="1" as="geometry" />
        </mxCell>
        <mxCell id="XOZVNckXf9WFqRaCFHXm-12" value="Manages the purchase system" style="edgeLabel;html=1;align=center;verticalAlign=middle;resizable=0;points=[];" parent="XOZVNckXf9WFqRaCFHXm-11" vertex="1" connectable="0">
          <mxGeometry x="0.1549" y="5" relative="1" as="geometry">
            <mxPoint as="offset" />
          </mxGeometry>
        </mxCell>
        <mxCell id="XOZVNckXf9WFqRaCFHXm-1" value="Admin" style="rounded=0;whiteSpace=wrap;html=1;fillColor=#e1d5e7;strokeColor=#9673a6;" parent="1" vertex="1">
          <mxGeometry x="40" y="520" width="120" height="40" as="geometry" />
        </mxCell>
        <mxCell id="XOZVNckXf9WFqRaCFHXm-2" value="Suppliers" style="whiteSpace=wrap;html=1;fillColor=#dae8fc;strokeColor=#6c8ebf;" parent="1" vertex="1">
          <mxGeometry x="400" y="230" width="120" height="40" as="geometry" />
        </mxCell>
        <mxCell id="XOZVNckXf9WFqRaCFHXm-24" style="edgeStyle=orthogonalEdgeStyle;rounded=0;orthogonalLoop=1;jettySize=auto;html=1;exitX=0.75;exitY=0;exitDx=0;exitDy=0;entryX=1;entryY=0;entryDx=0;entryDy=0;" parent="1" source="XOZVNckXf9WFqRaCFHXm-3" target="XOZVNckXf9WFqRaCFHXm-5" edge="1">
          <mxGeometry relative="1" as="geometry">
            <mxPoint x="560" y="460" as="targetPoint" />
            <mxPoint x="720" y="470" as="sourcePoint" />
          </mxGeometry>
        </mxCell>
        <mxCell id="XOZVNckXf9WFqRaCFHXm-25" value="Provide payment confirmation&amp;nbsp;" style="edgeLabel;html=1;align=center;verticalAlign=middle;resizable=0;points=[];" parent="XOZVNckXf9WFqRaCFHXm-24" vertex="1" connectable="0">
          <mxGeometry x="0.1431" relative="1" as="geometry">
            <mxPoint as="offset" />
          </mxGeometry>
        </mxCell>
        <mxCell id="XOZVNckXf9WFqRaCFHXm-3" value="Banking" style="whiteSpace=wrap;html=1;fillColor=#ffe6cc;strokeColor=#d79b00;" parent="1" vertex="1">
          <mxGeometry x="650" y="520" width="120" height="40" as="geometry" />
        </mxCell>
        <mxCell id="XOZVNckXf9WFqRaCFHXm-13" style="edgeStyle=orthogonalEdgeStyle;rounded=0;orthogonalLoop=1;jettySize=auto;html=1;entryX=0.567;entryY=1;entryDx=0;entryDy=0;entryPerimeter=0;" parent="1" source="XOZVNckXf9WFqRaCFHXm-4" target="XOZVNckXf9WFqRaCFHXm-5" edge="1">
          <mxGeometry relative="1" as="geometry">
            <mxPoint x="458" y="550" as="targetPoint" />
            <Array as="points" />
          </mxGeometry>
        </mxCell>
        <mxCell id="XOZVNckXf9WFqRaCFHXm-14" value="Make Payment" style="edgeLabel;html=1;align=center;verticalAlign=middle;resizable=0;points=[];rotation=-90;" parent="XOZVNckXf9WFqRaCFHXm-13" vertex="1" connectable="0">
          <mxGeometry x="-0.0659" y="-2" relative="1" as="geometry">
            <mxPoint x="-10" as="offset" />
          </mxGeometry>
        </mxCell>
        <mxCell id="XOZVNckXf9WFqRaCFHXm-16" value="gets purchase confirmation" style="edgeLabel;html=1;align=center;verticalAlign=middle;resizable=0;points=[];rotation=-90;" parent="XOZVNckXf9WFqRaCFHXm-13" vertex="1" connectable="0">
          <mxGeometry x="-0.0659" y="-2" relative="1" as="geometry">
            <mxPoint x="20" y="-1" as="offset" />
          </mxGeometry>
        </mxCell>
        <mxCell id="XOZVNckXf9WFqRaCFHXm-21" value="gets update for deliveries" style="edgeLabel;html=1;align=center;verticalAlign=middle;resizable=0;points=[];rotation=-90;" parent="XOZVNckXf9WFqRaCFHXm-13" vertex="1" connectable="0">
          <mxGeometry x="-0.0659" y="-2" relative="1" as="geometry">
            <mxPoint x="-50" y="-1" as="offset" />
          </mxGeometry>
        </mxCell>
        <mxCell id="XOZVNckXf9WFqRaCFHXm-28" value="Sends replenishment orders" style="edgeLabel;html=1;align=center;verticalAlign=middle;resizable=0;points=[];rotation=-90;" parent="XOZVNckXf9WFqRaCFHXm-13" vertex="1" connectable="0">
          <mxGeometry x="-0.0659" y="-2" relative="1" as="geometry">
            <mxPoint x="-10" y="-281" as="offset" />
          </mxGeometry>
        </mxCell>
        <mxCell id="XOZVNckXf9WFqRaCFHXm-32" value="gets delivery info" style="edgeLabel;html=1;align=center;verticalAlign=middle;resizable=0;points=[];rotation=-90;" parent="XOZVNckXf9WFqRaCFHXm-13" vertex="1" connectable="0">
          <mxGeometry x="-0.0659" y="-2" relative="1" as="geometry">
            <mxPoint x="-40" y="-281" as="offset" />
          </mxGeometry>
        </mxCell>
        <mxCell id="XOZVNckXf9WFqRaCFHXm-35" value="gets inventory info" style="edgeLabel;html=1;align=center;verticalAlign=middle;resizable=0;points=[];rotation=-90;" parent="XOZVNckXf9WFqRaCFHXm-13" vertex="1" connectable="0">
          <mxGeometry x="-0.0659" y="-2" relative="1" as="geometry">
            <mxPoint x="20" y="-271" as="offset" />
          </mxGeometry>
        </mxCell>
        <mxCell id="XOZVNckXf9WFqRaCFHXm-4" value="Customer" style="whiteSpace=wrap;html=1;fillColor=#fff2cc;strokeColor=#d6b656;" parent="1" vertex="1">
          <mxGeometry x="396" y="730" width="124" height="40" as="geometry" />
        </mxCell>
        <mxCell id="XOZVNckXf9WFqRaCFHXm-15" style="edgeStyle=orthogonalEdgeStyle;rounded=0;orthogonalLoop=1;jettySize=auto;html=1;entryX=0.75;entryY=0;entryDx=0;entryDy=0;" parent="1" source="XOZVNckXf9WFqRaCFHXm-5" target="XOZVNckXf9WFqRaCFHXm-4" edge="1">
          <mxGeometry relative="1" as="geometry">
            <Array as="points">
              <mxPoint x="490" y="635" />
              <mxPoint x="489" y="635" />
            </Array>
          </mxGeometry>
        </mxCell>
        <mxCell id="XOZVNckXf9WFqRaCFHXm-22" style="edgeStyle=orthogonalEdgeStyle;rounded=0;orthogonalLoop=1;jettySize=auto;html=1;entryX=0.5;entryY=0;entryDx=0;entryDy=0;" parent="1" source="XOZVNckXf9WFqRaCFHXm-5" target="XOZVNckXf9WFqRaCFHXm-3" edge="1">
          <mxGeometry relative="1" as="geometry" />
        </mxCell>
        <mxCell id="XOZVNckXf9WFqRaCFHXm-23" value="Request payment Bills/ Invoices" style="edgeLabel;html=1;align=center;verticalAlign=middle;resizable=0;points=[];" parent="XOZVNckXf9WFqRaCFHXm-22" vertex="1" connectable="0">
          <mxGeometry x="-0.1709" relative="1" as="geometry">
            <mxPoint as="offset" />
          </mxGeometry>
        </mxCell>
        <mxCell id="XOZVNckXf9WFqRaCFHXm-5" value="Purchase System" style="ellipse;whiteSpace=wrap;html=1;fillColor=#d5e8d4;strokeColor=#82b366;" parent="1" vertex="1">
          <mxGeometry x="390" y="460" width="120" height="80" as="geometry" />
        </mxCell>
        <mxCell id="XOZVNckXf9WFqRaCFHXm-6" value="0&lt;div&gt;&lt;br&gt;&lt;/div&gt;" style="text;html=1;align=center;verticalAlign=middle;whiteSpace=wrap;rounded=0;" parent="1" vertex="1">
          <mxGeometry x="410" y="480" width="60" height="30" as="geometry" />
        </mxCell>
        <mxCell id="XOZVNckXf9WFqRaCFHXm-19" style="edgeStyle=orthogonalEdgeStyle;rounded=0;orthogonalLoop=1;jettySize=auto;html=1;entryX=0.194;entryY=0;entryDx=0;entryDy=0;entryPerimeter=0;exitX=0.248;exitY=0.935;exitDx=0;exitDy=0;exitPerimeter=0;" parent="1" source="XOZVNckXf9WFqRaCFHXm-5" target="XOZVNckXf9WFqRaCFHXm-4" edge="1">
          <mxGeometry relative="1" as="geometry">
            <mxPoint x="420" y="540" as="sourcePoint" />
            <mxPoint x="439.842" y="713.49" as="targetPoint" />
            <Array as="points">
              <mxPoint x="420" y="670" />
              <mxPoint x="420" y="670" />
            </Array>
          </mxGeometry>
        </mxCell>
        <mxCell id="XOZVNckXf9WFqRaCFHXm-26" style="edgeStyle=orthogonalEdgeStyle;rounded=0;orthogonalLoop=1;jettySize=auto;html=1;entryX=0.583;entryY=0;entryDx=0;entryDy=0;entryPerimeter=0;endArrow=none;endFill=0;startArrow=classic;startFill=1;" parent="1" source="XOZVNckXf9WFqRaCFHXm-2" target="XOZVNckXf9WFqRaCFHXm-5" edge="1">
          <mxGeometry relative="1" as="geometry" />
        </mxCell>
        <mxCell id="XOZVNckXf9WFqRaCFHXm-31" style="edgeStyle=orthogonalEdgeStyle;rounded=0;orthogonalLoop=1;jettySize=auto;html=1;entryX=0.415;entryY=1.051;entryDx=0;entryDy=0;entryPerimeter=0;exitX=0.331;exitY=0.051;exitDx=0;exitDy=0;exitPerimeter=0;endArrow=none;endFill=0;startArrow=classic;startFill=1;" parent="1" source="XOZVNckXf9WFqRaCFHXm-5" edge="1">
          <mxGeometry relative="1" as="geometry">
            <mxPoint x="430.2" y="457.96" as="sourcePoint" />
            <mxPoint x="430.00000000000006" y="269.99999999999994" as="targetPoint" />
          </mxGeometry>
        </mxCell>
        <mxCell id="XOZVNckXf9WFqRaCFHXm-33" style="edgeStyle=orthogonalEdgeStyle;rounded=0;orthogonalLoop=1;jettySize=auto;html=1;entryX=0.75;entryY=1;entryDx=0;entryDy=0;startArrow=classic;startFill=1;endArrow=none;endFill=0;" parent="1" target="XOZVNckXf9WFqRaCFHXm-2" edge="1">
          <mxGeometry relative="1" as="geometry">
            <mxPoint x="490" y="470" as="sourcePoint" />
            <mxPoint x="494.00000000000006" y="281.35999999999996" as="targetPoint" />
            <Array as="points">
              <mxPoint x="490" y="430" />
              <mxPoint x="490" y="430" />
            </Array>
          </mxGeometry>
        </mxCell>
      </root>
    </mxGraphModel>
  </diagram>
</mxfile>
